<?xml version="1.0" encoding="UTF-8"?><svg id="Camada_1" xmlns="http://www.w3.org/2000/svg" viewBox="0 0 503 503"><defs><style>.cls-1{fill:#35bfad;}</style></defs><path class="cls-1" d="M371.93,145.26c32.4,2.17,62.67,19.91,83.24,44.46,3.41,4.07,6.14,8.81,9.4,12.97.51.65-.02,1.46,1.83,1.01,7.35-30.86,7.26-63.25-4.2-93.07-26.23-68.26-102.31-101.33-171.92-83.06-.46,1.85.37,1.32,1.02,1.83,13.5,10.68,23.48,17.1,34.08,31.53,28.62,38.98,33.32,100.08.91,138.34-11.07,13.07-35.32,30.55-49.16,10.78-13.89-19.83,12.61-44.05,28.12-53.43,5.93-3.58,12.83-6.05,18.51-9.51,6.8-42.01-13.81-78.71-48.75-100.65-2.43-1.52-14.39-8.72-16.15-8.34-34.21,16.2-60.64,45.97-64.67,84.7l-23.18-2.38c3.49-37.75,25.5-71.82,57.63-91.28.24-2.07,0-1.27-1.16-1.61C136.54.87,41.38,73.6,46.86,168.84l-19.16,29.27c-.61-4.18-1.73-8.33-2.3-12.52C12.09,87.68,81.97,4.57,180.21-.43c27.35-1.39,54.46,4.35,79.98,13.56,55.24-21.16,116.75-18.38,165.96,15.88,68.71,47.82,84.18,130.83,54.25,206.71-19.03,48.23-54.83,80.65-107.3,87.89-1.82-.32-1.03-5.54-1.27-7.32-.69-5.28-1.93-10.49-2.75-15.73,19.56-3.13,37.56-9.85,53.2-22.08,14.5-11.33,25.9-27.67,32.58-44.76-15.12-35.55-47.13-61.04-85.79-66.01l2.86-22.44Z"/><path class="cls-1" d="M146.97,144.47l2.87,23.24c-38.56,5.02-70.83,30.14-85.31,66.08,13.09,36.47,46.97,62.56,85.65,65.99l-4.04,23.18c-37.61-4.3-73.04-25.76-92.43-58.41-1.44.67-3.62,12.8-4.03,15.19-16.94,99.18,63.78,178.65,162.29,163.89,4.2-.63,13.07-1.87,16.67-3.35.45-.18,1.1-.65.37-1.2-10.62-8-19.91-14.61-28.81-24.82-31.89-36.58-41.2-94.8-14.33-136.84,10.25-16.03,37.97-43.92,55.55-21.26,15.57,20.06-13.17,46.17-29.36,55.46-3.09,1.77-15.43,6.77-16.63,8.19-.71.84-1.02,1.75-1.18,2.82-2.01,12.88.09,28.4,3.94,40.8,9.34,30.08,32.75,52.42,60.59,65.83,35.01-14.48,61.73-46.22,65.98-84.6l23.16,2.34c-5.64,62.09-53.94,99.29-110.48,114.88-116.69,32.16-228.16-56-212.03-178.41,8.84-67.1,49.46-131.07,121.57-139.01Z"/><path class="cls-1" d="M295.88,465.48l28.61-19.81c82.03,3.74,152.53-64.24,146.86-146.92l19.85-27c14.34,62.55-11.07,129.33-62.98,166.37-38.05,27.15-86.49,36.37-132.34,27.36Z"/><path class="cls-1" d="M347.91,323.79c-25.25-1.98-55.14-15.09-68.87-37.2-16.9-27.22,7.13-50.28,33.91-31.51,20.8,14.58,33.72,43.75,34.96,68.71Z"/><path class="cls-1" d="M172.16,143.85c25.39,1.89,58.67,17.1,70.23,40.89,11.08,22.8-7.64,41.78-30.6,30.6-21.53-10.49-36.88-40.42-39.88-63.39-.22-1.7-1.44-7.85.25-8.1Z"/></svg>