<?xml version="1.0" encoding="UTF-8"?><svg id="Camada_1" xmlns="http://www.w3.org/2000/svg" viewBox="0 0 1000 158"><defs><style>.cls-1{fill:#fff;}</style></defs><path class="cls-1" d="M0,3.52h58.07c10.71,0,19.3,2.46,25.77,7.36,6.47,4.91,9.71,12.33,9.71,22.26,0,6.03-1.48,11.19-4.44,15.48-2.96,4.3-7.17,7.62-12.64,9.96v.34c7.36,1.56,12.94,5.05,16.74,10.46,3.79,5.41,5.69,12.19,5.69,20.33,0,4.69-.84,9.07-2.51,13.14-1.67,4.07-4.3,7.59-7.86,10.54-3.57,2.96-8.15,5.3-13.72,7.03-5.58,1.73-12.22,2.59-19.92,2.59H0V3.52ZM20.92,53.56h34.14c5.02,0,9.2-1.42,12.55-4.27,3.35-2.84,5.02-6.95,5.02-12.3,0-6.02-1.51-10.26-4.52-12.72-3.01-2.45-7.37-3.68-13.05-3.68H20.92v32.97ZM20.92,105.94h36.99c6.36,0,11.3-1.64,14.81-4.94,3.51-3.29,5.27-7.95,5.27-13.97s-1.76-10.46-5.27-13.64c-3.52-3.18-8.45-4.77-14.81-4.77H20.92v37.32Z"/><path class="cls-1" d="M130.04,84.69c0,3.35.47,6.58,1.42,9.71.95,3.13,2.37,5.86,4.27,8.2,1.9,2.34,4.29,4.21,7.2,5.61,2.9,1.4,6.36,2.09,10.38,2.09,5.58,0,10.07-1.2,13.47-3.6,3.4-2.4,5.94-6,7.61-10.79h18.08c-1.01,4.69-2.74,8.87-5.19,12.55-2.46,3.68-5.41,6.78-8.87,9.29-3.46,2.51-7.34,4.41-11.63,5.69-4.3,1.28-8.79,1.92-13.47,1.92-6.81,0-12.83-1.12-18.07-3.35-5.25-2.23-9.68-5.36-13.31-9.37-3.63-4.02-6.36-8.81-8.2-14.39-1.84-5.58-2.76-11.72-2.76-18.41,0-6.13.98-11.97,2.93-17.49,1.95-5.52,4.74-10.38,8.37-14.56,3.62-4.18,8-7.5,13.14-9.96,5.13-2.45,10.93-3.68,17.4-3.68,6.81,0,12.91,1.42,18.33,4.27,5.41,2.85,9.9,6.61,13.47,11.3,3.57,4.69,6.16,10.07,7.78,16.15,1.62,6.08,2.03,12.36,1.26,18.83h-63.6ZM174.55,72.14c-.22-3.01-.87-5.91-1.92-8.7-1.06-2.79-2.51-5.21-4.35-7.28-1.84-2.06-4.07-3.74-6.7-5.02-2.62-1.28-5.55-1.92-8.79-1.92s-6.39.59-9.12,1.76c-2.74,1.17-5.08,2.79-7.03,4.85-1.95,2.07-3.51,4.49-4.69,7.28-1.17,2.79-1.81,5.8-1.92,9.04h44.52Z"/><path class="cls-1" d="M280.66,103.77c0,2.34.31,4.02.92,5.02.61,1,1.81,1.51,3.6,1.51h2.01c.78,0,1.67-.11,2.68-.34v13.22c-.67.22-1.54.47-2.59.75-1.06.28-2.15.53-3.26.75-1.12.22-2.24.39-3.35.5-1.12.11-2.07.17-2.85.17-3.91,0-7.14-.78-9.71-2.34-2.57-1.56-4.24-4.29-5.02-8.2-3.79,3.68-8.45,6.36-13.97,8.03-5.52,1.67-10.85,2.51-15.98,2.51-3.91,0-7.64-.53-11.21-1.59-3.57-1.06-6.72-2.62-9.46-4.69-2.73-2.06-4.91-4.69-6.53-7.87-1.62-3.18-2.43-6.89-2.43-11.13,0-5.36.98-9.71,2.93-13.05,1.95-3.35,4.52-5.97,7.7-7.87,3.18-1.9,6.75-3.26,10.71-4.1,3.96-.84,7.95-1.48,11.97-1.92,3.46-.67,6.75-1.14,9.87-1.42,3.12-.28,5.88-.75,8.28-1.42,2.4-.67,4.29-1.7,5.69-3.1,1.39-1.39,2.09-3.49,2.09-6.28,0-2.45-.58-4.46-1.76-6.02-1.17-1.56-2.62-2.76-4.35-3.6-1.73-.84-3.65-1.39-5.77-1.67-2.12-.28-4.13-.42-6.02-.42-5.36,0-9.76,1.12-13.22,3.35-3.46,2.23-5.41,5.69-5.86,10.38h-19.08c.34-5.58,1.68-10.21,4.02-13.89,2.34-3.68,5.33-6.64,8.95-8.87,3.62-2.23,7.73-3.79,12.3-4.69,4.57-.89,9.26-1.34,14.06-1.34,4.24,0,8.42.45,12.55,1.34,4.13.89,7.84,2.34,11.13,4.35,3.29,2.01,5.94,4.6,7.95,7.78,2.01,3.18,3.01,7.06,3.01,11.63v44.52ZM261.58,79.67c-2.9,1.9-6.47,3.04-10.71,3.43-4.24.39-8.48.98-12.72,1.76-2.01.34-3.96.81-5.86,1.42-1.9.61-3.57,1.45-5.02,2.51-1.45,1.06-2.59,2.46-3.43,4.18-.84,1.73-1.25,3.82-1.25,6.28,0,2.12.61,3.91,1.84,5.36,1.23,1.45,2.7,2.59,4.43,3.43,1.73.84,3.62,1.42,5.69,1.76,2.06.34,3.93.5,5.61.5,2.12,0,4.4-.28,6.86-.84,2.45-.56,4.77-1.51,6.95-2.84,2.18-1.34,3.99-3.04,5.44-5.1,1.45-2.06,2.17-4.6,2.17-7.62v-14.23Z"/><path class="cls-1" d="M377.22,123.01h-18.74v-12.05h-.34c-2.34,4.35-5.83,7.84-10.46,10.46-4.63,2.62-9.35,3.93-14.14,3.93-11.38,0-19.61-2.82-24.68-8.45-5.08-5.63-7.62-14.14-7.62-25.52v-54.89h19.08v53.05c0,7.59,1.45,12.94,4.35,16.07,2.9,3.13,6.97,4.69,12.22,4.69,4.02,0,7.36-.61,10.04-1.84,2.68-1.23,4.85-2.87,6.53-4.94,1.68-2.06,2.87-4.54,3.6-7.45.72-2.9,1.09-6.03,1.09-9.37v-50.21h19.08v86.52Z"/><path class="cls-1" d="M388.6,36.49h14.39V10.55h19.08v25.94h17.24v14.23h-17.24v46.19c0,2.01.09,3.74.25,5.19.17,1.45.56,2.68,1.17,3.68.61,1.01,1.53,1.76,2.76,2.26,1.23.5,2.9.75,5.02.75,1.34,0,2.68-.03,4.02-.08,1.34-.06,2.68-.25,4.02-.59v14.73c-2.12.22-4.18.45-6.19.67-2.01.22-4.07.33-6.19.33-5.02,0-9.07-.48-12.13-1.42-3.07-.95-5.47-2.34-7.19-4.18-1.73-1.84-2.9-4.15-3.51-6.95-.62-2.79-.98-5.97-1.09-9.54v-51.04h-14.39v-14.23Z"/><path class="cls-1" d="M443.5,36.49h20.92l22.59,64.6h.34l21.92-64.6h19.91l-33.64,91.21c-1.56,3.9-3.1,7.64-4.6,11.21-1.51,3.57-3.35,6.72-5.52,9.46-2.18,2.73-4.88,4.91-8.12,6.53-3.24,1.62-7.36,2.43-12.38,2.43-4.46,0-8.87-.33-13.22-1v-16.07c1.56.22,3.07.47,4.52.75,1.45.28,2.95.42,4.52.42,2.23,0,4.07-.28,5.52-.84,1.45-.56,2.65-1.37,3.6-2.43.95-1.06,1.76-2.32,2.43-3.77.67-1.45,1.28-3.12,1.84-5.02l2.18-6.69-32.8-86.19Z"/><path class="cls-1" d="M602.82,83.18c0,4.58.78,8.48,2.34,11.72,1.56,3.24,3.74,5.89,6.53,7.95,2.79,2.07,6,3.57,9.62,4.52,3.62.95,7.56,1.42,11.8,1.42,4.58,0,8.48-.53,11.72-1.59,3.24-1.06,5.86-2.43,7.86-4.1,2.01-1.67,3.46-3.6,4.35-5.77.89-2.18,1.34-4.38,1.34-6.61,0-4.57-1.03-7.95-3.1-10.13-2.07-2.18-4.33-3.71-6.78-4.6-4.24-1.56-9.18-3.04-14.81-4.43-5.63-1.39-12.58-3.21-20.84-5.44-5.13-1.34-9.4-3.1-12.8-5.27-3.4-2.18-6.11-4.6-8.12-7.28-2.01-2.68-3.43-5.52-4.27-8.54-.84-3.01-1.25-6.08-1.25-9.2,0-6.02,1.25-11.24,3.77-15.65,2.51-4.41,5.83-8.06,9.96-10.96,4.13-2.9,8.81-5.05,14.06-6.44,5.24-1.39,10.54-2.09,15.9-2.09,6.25,0,12.13.81,17.65,2.43,5.52,1.62,10.38,4.05,14.56,7.28,4.18,3.24,7.5,7.23,9.96,11.97,2.45,4.74,3.68,10.24,3.68,16.48h-20.92c-.56-7.7-3.18-13.14-7.86-16.32-4.69-3.18-10.65-4.77-17.91-4.77-2.46,0-4.96.25-7.53.75-2.57.5-4.91,1.34-7.03,2.51-2.12,1.17-3.88,2.76-5.27,4.77-1.4,2.01-2.09,4.52-2.09,7.53,0,4.24,1.31,7.56,3.93,9.96,2.62,2.4,6.05,4.21,10.29,5.44.45.11,2.2.59,5.27,1.42,3.07.84,6.5,1.76,10.29,2.76,3.79,1,7.5,1.98,11.13,2.93,3.62.95,6.22,1.65,7.78,2.09,3.9,1.23,7.31,2.9,10.21,5.02,2.9,2.12,5.33,4.55,7.28,7.28,1.95,2.74,3.4,5.66,4.35,8.79.95,3.13,1.42,6.25,1.42,9.37,0,6.69-1.37,12.41-4.1,17.15-2.74,4.74-6.33,8.62-10.79,11.63-4.47,3.01-9.54,5.22-15.23,6.61-5.69,1.39-11.49,2.09-17.4,2.09-6.81,0-13.22-.84-19.25-2.51-6.03-1.67-11.27-4.24-15.73-7.7-4.46-3.46-8.03-7.89-10.71-13.31-2.68-5.41-4.07-11.8-4.18-19.16h20.92Z"/><path class="cls-1" d="M694.86,36.49h18.07v12.05h.5c1.45-2.12,3.01-4.07,4.69-5.86,1.68-1.78,3.54-3.29,5.61-4.52,2.06-1.23,4.44-2.2,7.11-2.93,2.68-.72,5.75-1.09,9.2-1.09,5.24,0,10.13,1.17,14.65,3.51,4.52,2.34,7.72,5.97,9.62,10.88,3.23-4.46,6.97-7.98,11.21-10.54,4.24-2.57,9.54-3.85,15.9-3.85,9.15,0,16.26,2.23,21.34,6.69,5.07,4.46,7.61,11.94,7.61,22.43v59.75h-19.08v-50.54c0-3.46-.11-6.61-.34-9.46-.22-2.85-.87-5.3-1.92-7.36-1.06-2.06-2.65-3.65-4.77-4.77-2.12-1.11-5.02-1.67-8.7-1.67-6.47,0-11.16,2.01-14.06,6.02-2.9,4.02-4.35,9.71-4.35,17.07v50.71h-19.08v-55.56c0-6.02-1.09-10.57-3.26-13.64-2.18-3.07-6.17-4.6-11.97-4.6-2.46,0-4.83.5-7.11,1.51s-4.3,2.46-6.02,4.35c-1.73,1.9-3.13,4.24-4.18,7.03-1.06,2.79-1.59,5.97-1.59,9.54v51.38h-19.08V36.49Z"/><path class="cls-1" d="M840.97,3.52h19.08v18.07h-19.08V3.52ZM840.97,36.49h19.08v86.52h-19.08V36.49Z"/><path class="cls-1" d="M881.3,3.52h19.08v119.49h-19.08V3.52Z"/><path class="cls-1" d="M936.02,84.69c0,3.35.47,6.58,1.42,9.71.95,3.13,2.37,5.86,4.27,8.2,1.9,2.34,4.29,4.21,7.2,5.61,2.9,1.4,6.36,2.09,10.38,2.09,5.58,0,10.07-1.2,13.47-3.6,3.4-2.4,5.94-6,7.62-10.79h18.07c-1.01,4.69-2.73,8.87-5.19,12.55-2.46,3.68-5.41,6.78-8.87,9.29-3.46,2.51-7.34,4.41-11.63,5.69-4.3,1.28-8.79,1.92-13.47,1.92-6.81,0-12.83-1.12-18.07-3.35-5.25-2.23-9.68-5.36-13.3-9.37-3.63-4.02-6.36-8.81-8.2-14.39-1.84-5.58-2.76-11.72-2.76-18.41,0-6.13.98-11.97,2.93-17.49,1.95-5.52,4.74-10.38,8.37-14.56,3.62-4.18,8.01-7.5,13.14-9.96,5.13-2.45,10.93-3.68,17.4-3.68,6.8,0,12.91,1.42,18.33,4.27,5.41,2.85,9.9,6.61,13.47,11.3,3.57,4.69,6.16,10.07,7.78,16.15,1.62,6.08,2.03,12.36,1.25,18.83h-63.59ZM980.54,72.14c-.22-3.01-.87-5.91-1.92-8.7-1.06-2.79-2.51-5.21-4.35-7.28-1.84-2.06-4.07-3.74-6.69-5.02-2.62-1.28-5.55-1.92-8.79-1.92s-6.39.59-9.12,1.76c-2.73,1.17-5.08,2.79-7.03,4.85-1.95,2.07-3.51,4.49-4.69,7.28-1.17,2.79-1.81,5.8-1.92,9.04h44.52Z"/></svg>