<?xml version="1.0" encoding="UTF-8"?>
<svg id="Layer_1" xmlns="http://www.w3.org/2000/svg" version="1.1" viewBox="0 0 870 870">
  <!-- Generator: Adobe Illustrator 29.8.2, SVG Export Plug-In . SVG Version: 2.1.1 Build 3)  -->
  <defs>
    <style>
      .st0 {
        fill: #86898c;
      }
    </style>
  </defs>
  <path class="st0" d="M570.69,598.62c-158.97,0-288.3-129.33-288.3-288.3S411.72,22.02,570.69,22.02s288.3,129.33,288.3,288.3-129.33,288.3-288.3,288.3ZM570.69,26.08c-156.73,0-284.24,127.51-284.24,284.24s127.51,284.24,284.24,284.24,284.24-127.51,284.24-284.24S727.42,26.08,570.69,26.08Z"/>
  <path class="st0" d="M299.32,598.62c-158.97,0-288.3-129.33-288.3-288.3S140.35,22.02,299.32,22.02s288.3,129.33,288.3,288.3-129.33,288.3-288.3,288.3ZM299.32,26.08C142.58,26.08,15.07,153.59,15.07,310.32s127.51,284.24,284.24,284.24,284.24-127.51,284.24-284.24S456.05,26.08,299.32,26.08Z"/>
  <path class="st0" d="M570.69,847.98c-158.97,0-288.3-129.33-288.3-288.3s129.33-288.3,288.3-288.3,288.3,129.33,288.3,288.3-129.33,288.3-288.3,288.3ZM570.69,275.44c-156.73,0-284.24,127.51-284.24,284.24s127.51,284.24,284.24,284.24,284.24-127.51,284.24-284.24-127.51-284.24-284.24-284.24Z"/>
  <path class="st0" d="M299.32,847.98c-158.97,0-288.3-129.33-288.3-288.3s129.33-288.3,288.3-288.3,288.3,129.33,288.3,288.3-129.33,288.3-288.3,288.3ZM299.32,275.44c-156.73,0-284.24,127.51-284.24,284.24s127.51,284.24,284.24,284.24,284.24-127.51,284.24-284.24-127.51-284.24-284.24-284.24Z"/>
</svg>